<svg width="570" height="540" viewBox="0 0 570 540" fill="none" xmlns="http://www.w3.org/2000/svg">
<path d="M285 10C437.395 10 560 126.909 560 270C560 413.091 437.395 530 285 530C132.605 530 10 413.091 10 270C10 126.909 132.605 10 285 10Z" fill="#0F1A17" stroke="#0F1A17" stroke-width="20"/>
<mask id="path-2-inside-1_17_5" fill="white">
<path d="M265.191 51.0957C223.677 87.7425 198 139.536 198 196.324C198 305.559 292.996 396.324 413 396.324C438.658 396.324 463.173 392.173 485.86 384.581C479.892 393.757 473.227 402.491 465.934 410.72C448.921 414.386 431.202 416.324 413 416.324C283.213 416.324 178 317.827 178 196.324C178 142.954 198.3 94.0226 232.065 55.9277C242.843 53.6051 253.904 51.9776 265.191 51.0957Z"/>
</mask>
<path d="M265.191 51.0957C223.677 87.7425 198 139.536 198 196.324C198 305.559 292.996 396.324 413 396.324C438.658 396.324 463.173 392.173 485.86 384.581C479.892 393.757 473.227 402.491 465.934 410.72C448.921 414.386 431.202 416.324 413 416.324C283.213 416.324 178 317.827 178 196.324C178 142.954 198.3 94.0226 232.065 55.9277C242.843 53.6051 253.904 51.9776 265.191 51.0957Z" fill="#F7F5F0"/>
<path d="M265.191 51.0957L265.853 51.8454L268.096 49.8657L265.114 50.0987L265.191 51.0957ZM485.86 384.581L486.699 385.126L488.262 382.723L485.543 383.633L485.86 384.581ZM465.934 410.72L466.144 411.697L466.465 411.628L466.682 411.383L465.934 410.72ZM232.065 55.9277L231.855 54.9502L231.534 55.0192L231.317 55.2644L232.065 55.9277ZM265.191 51.0957L264.53 50.346C222.818 87.1662 197 139.225 197 196.324H198H199C199 139.847 224.535 88.3188 265.853 51.8454L265.191 51.0957ZM198 196.324H197C197 306.171 292.505 397.324 413 397.324V396.324V395.324C293.487 395.324 199 304.947 199 196.324H198ZM413 396.324V397.324C438.767 397.324 463.388 393.156 486.178 385.529L485.86 384.581L485.543 383.633C462.957 391.191 438.55 395.324 413 395.324V396.324ZM485.86 384.581L485.022 384.036C479.081 393.169 472.446 401.864 465.185 410.056L465.934 410.72L466.682 411.383C474.008 403.118 480.703 394.344 486.699 385.126L485.86 384.581ZM465.934 410.72L465.723 409.742C448.779 413.394 431.131 415.324 413 415.324V416.324V417.324C431.273 417.324 449.062 415.379 466.144 411.697L465.934 410.72ZM413 416.324V415.324C283.702 415.324 179 317.213 179 196.324H178H177C177 318.44 282.724 417.324 413 417.324V416.324ZM178 196.324H179C179 143.215 199.199 94.5156 232.814 56.591L232.065 55.9277L231.317 55.2644C197.4 93.5296 177 142.693 177 196.324H178ZM232.065 55.9277L232.276 56.9053C243.01 54.592 254.027 52.9711 265.269 52.0927L265.191 51.0957L265.114 50.0987C253.781 50.9842 242.676 52.6181 231.855 54.9502L232.065 55.9277Z" fill="#F7F5F0" mask="url(#path-2-inside-1_17_5)"/>
<path d="M285 60C409.896 60 510 154.631 510 270C510 385.369 409.896 480 285 480C160.104 480 60 385.369 60 270C60 154.631 160.104 60 285 60Z" stroke="#F7F5F0" stroke-width="20"/>
</svg>
