<svg xmlns="http://www.w3.org/2000/svg" version="1.1" xmlns:xlink="http://www.w3.org/1999/xlink" width="1000" height="1000"><g clip-path="url(#SvgjsClipPath1007)"><rect width="1000" height="1000" fill="#ffffff"></rect><g transform="matrix(1.4893617021276595,0,0,1.4893617021276595,150,172.3404255319149)"><svg xmlns="http://www.w3.org/2000/svg" version="1.1" xmlns:xlink="http://www.w3.org/1999/xlink" width="470" height="440"><svg width="470" height="440" viewBox="0 0 470 440" fill="none" xmlns="http://www.w3.org/2000/svg">
<mask id="path-1-inside-1_22_6" fill="white">
<path d="M215.191 1.0957C173.677 37.7425 148 89.5361 148 146.324C148 255.559 242.996 346.324 363 346.324C388.658 346.324 413.173 342.173 435.86 334.581C429.892 343.757 423.227 352.491 415.934 360.72C398.921 364.386 381.202 366.324 363 366.324C233.213 366.324 128 267.827 128 146.324C128 92.9541 148.3 44.0226 182.065 5.92773C192.843 3.60505 203.904 1.97764 215.191 1.0957Z"></path>
</mask>
<path d="M215.191 1.0957C173.677 37.7425 148 89.5361 148 146.324C148 255.559 242.996 346.324 363 346.324C388.658 346.324 413.173 342.173 435.86 334.581C429.892 343.757 423.227 352.491 415.934 360.72C398.921 364.386 381.202 366.324 363 366.324C233.213 366.324 128 267.827 128 146.324C128 92.9541 148.3 44.0226 182.065 5.92773C192.843 3.60505 203.904 1.97764 215.191 1.0957Z" fill="#0F1A17"></path>
<path d="M215.191 1.0957L215.853 1.8454L218.096 -0.134279L215.114 0.0987418L215.191 1.0957ZM435.86 334.581L436.699 335.126L438.262 332.723L435.543 333.633L435.86 334.581ZM415.934 360.72L416.144 361.697L416.465 361.628L416.682 361.383L415.934 360.72ZM182.065 5.92773L181.855 4.95018L181.534 5.01921L181.317 5.26443L182.065 5.92773ZM215.191 1.0957L214.53 0.346009C172.818 37.1662 147 89.2254 147 146.324H148H149C149 89.8469 174.535 38.3188 215.853 1.8454L215.191 1.0957ZM148 146.324H147C147 256.171 242.505 347.324 363 347.324V346.324V345.324C243.487 345.324 149 254.947 149 146.324H148ZM363 346.324V347.324C388.767 347.324 413.388 343.156 436.178 335.529L435.86 334.581L435.543 333.633C412.957 341.191 388.55 345.324 363 345.324V346.324ZM435.86 334.581L435.022 334.036C429.081 343.169 422.446 351.864 415.185 360.056L415.934 360.72L416.682 361.383C424.008 353.118 430.703 344.344 436.699 335.126L435.86 334.581ZM415.934 360.72L415.723 359.742C398.779 363.394 381.131 365.324 363 365.324V366.324V367.324C381.273 367.324 399.062 365.379 416.144 361.697L415.934 360.72ZM363 366.324V365.324C233.702 365.324 129 267.213 129 146.324H128H127C127 268.44 232.724 367.324 363 367.324V366.324ZM128 146.324H129C129 93.2149 149.199 44.5156 182.814 6.59104L182.065 5.92773L181.317 5.26443C147.4 43.5296 127 92.6934 127 146.324H128ZM182.065 5.92773L182.276 6.90529C193.01 4.59203 204.027 2.97111 215.269 2.09266L215.191 1.0957L215.114 0.0987418C203.781 0.984167 192.676 2.61807 181.855 4.95018L182.065 5.92773Z" fill="#0F1A17" mask="url(#path-1-inside-1_22_6)"></path>
<path d="M235 10C359.896 10 460 104.631 460 220C460 335.369 359.896 430 235 430C110.104 430 10 335.369 10 220C10 104.631 110.104 10 235 10Z" stroke="#0F1A17" stroke-width="20"></path>
</svg></svg></g></g><defs><clipPath id="SvgjsClipPath1007"><rect width="1000" height="1000" x="0" y="0" rx="350" ry="350"></rect></clipPath></defs></svg>